<?xml version="1.0" encoding="UTF-8" standalone="no"?>
<!DOCTYPE svg PUBLIC "-//W3C//DTD SVG 1.1//EN"
 "http://www.w3.org/Graphics/SVG/1.1/DTD/svg11.dtd">
<!-- Generated by graphviz version 2.44.0 (0)
 -->
<!-- Title: snakemake_dag Pages: 1 -->
<svg width="80pt" height="116pt"
 viewBox="0.00 0.00 80.00 116.00" xmlns="http://www.w3.org/2000/svg" xmlns:xlink="http://www.w3.org/1999/xlink">
<g id="graph0" class="graph" transform="scale(1 1) rotate(0) translate(4 112)">
<title>snakemake_dag</title>
<polygon fill="white" stroke="transparent" points="-4,4 -4,-112 76,-112 76,4 -4,4"/>
<!-- 0 -->
<g id="node1" class="node">
<title>0</title>
<path fill="none" stroke="#d85656" stroke-width="2" stroke-dasharray="5,2" d="M51,-36C51,-36 21,-36 21,-36 15,-36 9,-30 9,-24 9,-24 9,-12 9,-12 9,-6 15,0 21,0 21,0 51,0 51,0 57,0 63,-6 63,-12 63,-12 63,-24 63,-24 63,-30 57,-36 51,-36"/>
<text text-anchor="middle" x="36" y="-15.5" font-family="sans" font-size="10.00">all</text>
</g>
<!-- 1 -->
<g id="node2" class="node">
<title>1</title>
<path fill="none" stroke="#59d856" stroke-width="2" stroke-dasharray="5,2" d="M60,-108C60,-108 12,-108 12,-108 6,-108 0,-102 0,-96 0,-96 0,-84 0,-84 0,-78 6,-72 12,-72 12,-72 60,-72 60,-72 66,-72 72,-78 72,-84 72,-84 72,-96 72,-96 72,-102 66,-108 60,-108"/>
<text text-anchor="middle" x="36" y="-87.5" font-family="sans" font-size="10.00">s02_cluster</text>
</g>
<!-- 1&#45;&gt;0 -->
<g id="edge1" class="edge">
<title>1&#45;&gt;0</title>
<path fill="none" stroke="grey" stroke-width="2" d="M36,-71.7C36,-63.98 36,-54.71 36,-46.11"/>
<polygon fill="grey" stroke="grey" stroke-width="2" points="39.5,-46.1 36,-36.1 32.5,-46.1 39.5,-46.1"/>
</g>
</g>
</svg>
